<svg width="66" height="30" viewBox="0 0 66 30" fill="none" xmlns="http://www.w3.org/2000/svg">
<path d="M6.28977 23.7557C4.94886 23.7557 3.83807 23.483 2.95739 22.9375C2.0767 22.3864 1.45739 21.608 1.09943 20.6023C0.747159 19.5909 0.6875 18.3949 0.920455 17.0142C1.14773 15.6676 1.60511 14.4858 2.29261 13.4688C2.9858 12.4517 3.85511 11.6591 4.90057 11.0909C5.94602 10.5227 7.1108 10.2386 8.39489 10.2386C9.25852 10.2386 10.0398 10.3778 10.7386 10.6562C11.4432 10.929 12.0284 11.3437 12.4943 11.9006C12.9602 12.4517 13.2784 13.142 13.4489 13.9716C13.625 14.8011 13.6222 15.7727 13.4403 16.8864L13.2784 17.8835H2.23295L2.58239 15.6335H10.2188C10.304 15.1108 10.2699 14.6477 10.1165 14.2443C9.96307 13.8409 9.70739 13.5256 9.34943 13.2983C8.99148 13.0653 8.55114 12.9489 8.02841 12.9489C7.49432 12.9489 6.99432 13.0795 6.52841 13.3409C6.0625 13.6023 5.67045 13.946 5.35227 14.3722C5.03977 14.7926 4.83807 15.25 4.74716 15.7443L4.34659 17.9773C4.23295 18.6648 4.25568 19.2358 4.41477 19.6903C4.57955 20.1449 4.86364 20.4858 5.26705 20.7131C5.67045 20.9347 6.18182 21.0455 6.80114 21.0455C7.20455 21.0455 7.58239 20.9886 7.93466 20.875C8.29261 20.7614 8.6108 20.5938 8.8892 20.3722C9.16761 20.1449 9.39489 19.8636 9.57102 19.5284L12.8864 19.75C12.5795 20.5568 12.1136 21.2614 11.4886 21.8636C10.8636 22.4602 10.1108 22.9261 9.23011 23.2614C8.35511 23.5909 7.375 23.7557 6.28977 23.7557ZM14.7933 23.5L17.6911 6.04545H24.5774C25.8956 6.04545 26.978 6.2983 27.8246 6.80398C28.6768 7.30398 29.2734 8 29.6143 8.89204C29.9609 9.77841 30.0405 10.8011 29.853 11.9602C29.6598 13.125 29.2393 14.1506 28.5916 15.0369C27.9496 15.9176 27.1143 16.6051 26.0859 17.0994C25.0575 17.5937 23.87 17.8409 22.5234 17.8409H18.1342L18.62 14.8835H22.4126C23.1286 14.8835 23.7393 14.7614 24.245 14.517C24.7564 14.267 25.1626 13.9233 25.4638 13.4858C25.7649 13.0426 25.9609 12.5341 26.0518 11.9602C26.1484 11.375 26.1172 10.8665 25.9581 10.4347C25.799 10.0028 25.5064 9.66761 25.0803 9.42898C24.6598 9.18466 24.0945 9.0625 23.3842 9.0625H20.8956L18.4837 23.5H14.7933ZM36.6051 23.5H30.3324L33.2301 6.04545H39.3835C41.1392 6.04545 42.5966 6.40341 43.7557 7.11932C44.9205 7.83523 45.7415 8.8608 46.2188 10.196C46.696 11.5256 46.7813 13.1136 46.4744 14.9602C46.179 16.7443 45.5909 18.2756 44.7102 19.554C43.8295 20.8267 42.7017 21.804 41.3267 22.4858C39.9517 23.1619 38.3778 23.5 36.6051 23.5ZM34.5511 20.3381H36.8182C37.9148 20.3381 38.875 20.1335 39.6989 19.7244C40.5284 19.3153 41.2074 18.6847 41.7358 17.8324C42.2699 16.9801 42.6477 15.8892 42.8693 14.5597C43.0795 13.2983 43.0653 12.2756 42.8267 11.4915C42.5938 10.7017 42.142 10.125 41.4716 9.76136C40.8011 9.39205 39.9205 9.20739 38.8295 9.20739H36.4006L34.5511 20.3381ZM52.8601 6.04545L54.8885 19.3068H55.0504L61.468 6.04545H65.5589L56.6442 23.5H51.8885L48.7607 6.04545H52.8601Z" fill="#F2F2F2"/>
</svg>
